<?xml version="1.0" encoding="UTF-8"?>
<svg version="1.1" xmlns="http://www.w3.org/2000/svg" width="1280" height="720">
<path d="M0 0 C5.13630414 0.54585563 9.41803676 1.82216159 14.1875 3.8125 C31.99412936 10.77464838 51.61894673 13.71551729 70.4375 9.5 C78.17802829 7.83511573 85.71908062 7.69551056 93.625 7.6875 C95.42988892 7.67976563 95.42988892 7.67976563 97.27124023 7.671875 C108.60851178 7.75846037 119.77387192 8.91839169 130.625 12.3125 C131.32939209 12.52543701 132.03378418 12.73837402 132.75952148 12.95776367 C139.01776512 14.89938926 145.02937474 17.2965377 151 20 C151 20.99 151 21.98 151 23 C151.72832031 23.1134375 152.45664062 23.226875 153.20703125 23.34375 C167.97829965 26.8144816 180.71560932 42.47423089 188.40625 54.73828125 C194 64.08082933 194 64.08082933 194 69 C194.99 69.33 195.98 69.66 197 70 C197.87548828 71.77832031 197.87548828 71.77832031 198.5703125 74.078125 C198.95509766 75.32529297 198.95509766 75.32529297 199.34765625 76.59765625 C199.73244141 77.91056641 199.73244141 77.91056641 200.125 79.25 C200.38925781 80.10980469 200.65351562 80.96960938 200.92578125 81.85546875 C206.1512491 99.07033492 205.01483315 116.64444058 204.5625 134.4375 C204.50915291 136.72980353 204.45641389 139.0221213 204.40429688 141.31445312 C204.27653645 146.87648554 204.1412893 152.43829565 204 158 C200.16455078 157.22314453 200.16455078 157.22314453 198.68359375 155.21484375 C198.27238281 154.46332031 197.86117187 153.71179688 197.4375 152.9375 C190.86912734 142.49461892 178.42315905 136.26164526 166.66796875 133.53515625 C154.49892569 131.75969416 142.01983157 132.64281746 130 135 C107.20305454 138.99946412 85.0301444 132.50537679 66 120 C57.27380778 113.69714634 49.50435448 106.21620458 42.5625 98 C40.34610067 95.01070034 40.34610067 95.01070034 38 94 C38 93.01 38 92.02 38 91 C37.01 91.495 37.01 91.495 36 92 C36.144375 92.85980469 36.28875 93.71960938 36.4375 94.60546875 C37.73017546 102.8372979 38.24945497 110.65711697 38 119 C38.99 119.33 39.98 119.66 41 120 C41.68157937 123.14278784 42.34243058 126.28960853 43 129.4375 C43.19078125 130.31599609 43.3815625 131.19449219 43.578125 132.09960938 C44.76740062 137.85485387 45.19129428 143.12367891 45 149 C45.99 149.33 46.98 149.66 48 150 C48.7644043 151.72387695 48.7644043 151.72387695 49.32421875 153.98828125 C49.54392334 154.82979736 49.76362793 155.67131348 49.98999023 156.53833008 C50.22016846 157.45380615 50.45034668 158.36928223 50.6875 159.3125 C53.62728302 170.26850999 57.56733218 180.57320699 62 191 C62.56006539 192.34498149 63.11997044 193.69002976 63.6796875 195.03515625 C70.56924253 211.37253539 78.63252055 227.20414263 87.80859375 242.37109375 C88.17194824 242.9729248 88.53530273 243.57475586 88.90966797 244.19482422 C89.66057866 245.43804716 90.41502126 246.67914141 91.17236328 247.91845703 C94 252.66178971 94 252.66178971 94 256 C94.58523438 256.05671875 95.17046875 256.1134375 95.7734375 256.171875 C99.01008293 257.37567997 99.83182499 259.33513679 101.625 262.25 C108.24711321 272.58785451 115.70222173 281.96402684 124.1640625 290.85546875 C126 293 126 293 126 295 C126.57234375 295.24234375 127.1446875 295.4846875 127.734375 295.734375 C130.41903449 297.23408134 132.13875216 299.0172415 134.25 301.25 C137.77817606 304.88934579 141.35327977 307.90218651 145.56640625 310.7109375 C146.03949219 311.13632812 146.51257813 311.56171875 147 312 C147 312.99 147 313.98 147 315 C148.01320313 315.32484375 148.01320313 315.32484375 149.046875 315.65625 C152.91451352 317.41612785 155.92613677 319.88103769 159.25 322.5 C171.56081528 331.92783061 184.09579926 339.5122058 199 344 C199 344.99 199 345.98 199 347 C233.5979004 349.71356082 259.9588018 342.32595624 287 320 C287.96550781 319.22527344 288.93101562 318.45054687 289.92578125 317.65234375 C295.17021237 313.4234318 300.22313754 309.05612213 305.125 304.43359375 C307 303 307 303 310 303 C310.10183594 302.40775635 310.20367188 301.8155127 310.30859375 301.20532227 C311.12080737 298.61467056 312.10522881 297.5737498 314.0625 295.71484375 C314.69003174 295.10753418 315.31756348 294.50022461 315.96411133 293.87451172 C316.63595459 293.23529785 317.30779785 292.59608398 318 291.9375 C324.14321975 285.9425973 329.75370578 279.80653042 335 273 C335.79664063 271.99710938 336.59328125 270.99421875 337.4140625 269.9609375 C351.07027029 252.67601185 362.33599776 233.77939601 372 214 C372.99 214 373.98 214 375 214 C375.3403125 212.081875 375.3403125 212.081875 375.6875 210.125 C376.70182181 205.49534547 378.54782917 201.73918733 380.7578125 197.57421875 C382.70423051 193.54060407 383.86892672 189.32198734 385 185 C385.99 185 386.98 185 388 185 C388.03520752 184.39776611 388.07041504 183.79553223 388.10668945 183.17504883 C388.60923364 176.62301042 390.06982577 170.88748544 392.1875 164.6875 C392.82640699 162.74029997 393.46307425 160.79236381 394.09765625 158.84375 C394.41750488 157.86664063 394.73735352 156.88953125 395.06689453 155.8828125 C401.9841647 134.51203119 407.65857795 112.56489373 408 90 C407.61666504 90.47421387 407.23333008 90.94842773 406.83837891 91.43701172 C405.10176939 93.58396823 403.36340649 95.72949831 401.625 97.875 C400.72007812 98.99455078 400.72007812 98.99455078 399.796875 100.13671875 C399.21679688 100.85214844 398.63671875 101.56757813 398.0390625 102.3046875 C397.50490723 102.96452637 396.97075195 103.62436523 396.42041016 104.30419922 C395 106 395 106 393 108 C392.01 108 391.02 108 390 108 C389.835 108.680625 389.67 109.36125 389.5 110.0625 C384.03772199 120.7594611 369.63890983 126.59757844 358.74462891 130.28613281 C342.10792399 135.553962 342.10792399 135.553962 337 133 C337 133.66 337 134.32 337 135 C325.07880857 137.0659676 312.78914525 135.06350867 300.90625 133.4453125 C285.62377175 131.70310998 271.36514122 132.71022886 258 141 C256.20775982 142.57734327 254.64027301 144.26031651 253 146 C252.01 146 251.02 146 250 146 C249.79375 146.680625 249.5875 147.36125 249.375 148.0625 C247.55930804 151.94147829 245.00376505 154.96120562 242 158 C241.67 158 241.34 158 241 158 C241 136.22 241 114.44 241 92 C241.99 91.67 242.98 91.34 244 91 C243.9175 89.783125 243.835 88.56625 243.75 87.3125 C243.8764302 71.07886244 254.35854006 54.65747873 265 43 C265.48033691 42.46665039 265.96067383 41.93330078 266.45556641 41.38378906 C282.54795305 23.72009194 303.04423014 11.91806538 327 9 C330.05416283 8.86374653 333.1033189 8.85961169 336.16015625 8.8671875 C337.46055092 8.86575241 337.46055092 8.86575241 338.78721619 8.86428833 C340.61685255 8.86361057 342.44649136 8.86543657 344.27612305 8.86962891 C347.02984244 8.87493705 349.78339531 8.86969384 352.53710938 8.86328125 C361.40420825 8.86007539 370.17133305 9.03828725 379.01147461 9.76416016 C397.78541433 11.24570789 420.31821943 10.4870516 437.1015625 0.78515625 C439 0 439 0 444 1 C444 21.79 444 42.58 444 64 C443.34 64 442.68 64 442 64 C442.04640625 65.27488281 442.0928125 66.54976563 442.140625 67.86328125 C442.85396245 96.80401006 436.80472545 126.3148815 428.54150391 153.9765625 C427.72733375 157.01887192 427.18560963 160.11260592 426.64916992 163.21484375 C426.32783081 164.09849609 426.32783081 164.09849609 426 165 C425.01 165.33 424.02 165.66 423 166 C422.95875 167.299375 422.9175 168.59875 422.875 169.9375 C420.3477372 193.84673621 405.42981424 218.74304526 395 240 C394.01 240 393.02 240 392 240 C391.896875 240.680625 391.79375 241.36125 391.6875 242.0625 C390.85274981 245.62915989 389.50527246 248.66222194 388 252 C387.01 252 386.02 252 385 252 C384.72671875 252.89332031 384.4534375 253.78664063 384.171875 254.70703125 C376.38616343 276.58488076 355.37825384 296.28167711 339.78125 312.99609375 C337.22066721 315.74573056 334.73354552 318.55549541 332.25 321.375 C328.4286518 325.62701893 324.38895544 329.34776208 320 333 C319.175 333.72445313 318.35 334.44890625 317.5 335.1953125 C309.2469637 342.32501886 300.38589142 348.41352113 291.31665039 354.45068359 C289.71707555 355.52043825 288.12555175 356.60229544 286.54077148 357.69384766 C285.74872314 358.2357373 284.9566748 358.77762695 284.140625 359.3359375 C283.43067383 359.82626465 282.72072266 360.3165918 281.98925781 360.82177734 C279.38969799 362.36147736 277.00011287 362.84614806 274 363 C274 363.99 274 364.98 274 366 C272.97519531 366.32613281 271.95039062 366.65226562 270.89453125 366.98828125 C269.53374877 367.42936247 268.17307751 367.87078693 266.8125 368.3125 C266.13896484 368.52583984 265.46542969 368.73917969 264.77148438 368.95898438 C261.6780939 369.96999492 259.07814388 370.95239511 256.28125 372.65625 C252.74661452 374.73829555 250.03131494 374.20498212 246 374 C245.67 374.99 245.34 375.98 245 377 C217.00253505 384.04655298 188.58719109 375.45485838 164 362 C162.25009766 361.07767578 162.25009766 361.07767578 160.46484375 360.13671875 C150.95867915 354.96030669 142.45402593 348.73041026 134 342 C133.401875 341.52578613 132.80375 341.05157227 132.1875 340.56298828 C122.53736688 332.82726494 114.18624015 324.05696781 105.83496094 314.95776367 C104.02986124 313.03185967 102.1790362 311.16688735 100.30078125 309.3125 C93.18411285 302.25990064 87.26231517 294.12231979 81.3125 286.0859375 C79.35263679 283.47057949 77.34560313 280.90202676 75.31567383 278.34106445 C71.02698072 272.89602004 67.09368758 267.28789814 63.375 261.4375 C62.93679932 260.75848633 62.49859863 260.07947266 62.04711914 259.37988281 C59.88018034 255.89775498 59 254.19891466 59 250 C58.01 250 57.02 250 56 250 C48.96875 235.9375 48.96875 235.9375 47.56665039 233.12182617 C46.43941511 230.87561182 45.30097159 228.63758417 44.15014648 226.40356445 C38.92599086 216.20253568 34.41095393 205.7873303 30.0625 195.1875 C29.38527855 193.55121991 28.70754612 191.91515121 28.02929688 190.27929688 C21.86278248 175.37026861 21.86278248 175.37026861 22 167 C21.01 166.67 20.02 166.34 19 166 C16.38348793 159.87327009 15.62691849 153.59110674 16 147 C15.01 146.67 14.02 146.34 13 146 C12.24804688 143.98486328 12.24804688 143.98486328 11.71875 141.3203125 C11.51830078 140.3396582 11.31785156 139.35900391 11.11132812 138.34863281 C10.90958984 137.28483398 10.70785156 136.22103516 10.5 135.125 C10.28279297 134.02510742 10.06558594 132.92521484 9.84179688 131.79199219 C8.17913574 123.24789924 6.68286009 114.69327583 5.44628906 106.07763672 C5.00244257 103.01684413 4.54124954 99.95887803 4.07911682 96.90080261 C1.3758061 78.92325375 -0.88900963 61.20981972 -1 43 C-1.01365529 41.41943203 -1.02750487 39.83886574 -1.04150391 38.25830078 C-1.08526359 32.92223068 -1.1096662 27.58622234 -1.125 22.25 C-1.12795074 21.37354828 -1.13090149 20.49709656 -1.13394165 19.59408569 C-1.13968203 17.08871931 -1.13768722 14.58349089 -1.1328125 12.078125 C-1.13477127 11.32193375 -1.13673004 10.56574249 -1.13874817 9.78663635 C-1.12384148 6.38681805 -1.06862539 3.24938524 0 0 Z M97.4375 54.20703125 C93.7416843 55.40935591 89.95363924 55.90207915 86.1171875 56.47265625 C85.06917969 56.73369141 85.06917969 56.73369141 84 57 C83.67 57.66 83.34 58.32 83 59 C80.86694336 59.50244141 80.86694336 59.50244141 78.08984375 59.8515625 C77.10048828 59.98046875 76.11113281 60.109375 75.09179688 60.2421875 C74.05087891 60.36851562 73.00996094 60.49484375 71.9375 60.625 C70.89271484 60.7590625 69.84792969 60.893125 68.77148438 61.03125 C66.18191139 61.36233696 63.5915538 61.68485796 61 62 C61.76615327 66.82127129 63.70465347 69.58110955 66.875 73.1875 C67.36822754 73.75557373 67.86145508 74.32364746 68.36962891 74.90893555 C79.87407674 87.93232144 94.49497917 100.89042376 112.60644531 102.18652344 C122.73505453 102.603523 132.58491006 102.32177454 142.55859375 100.44921875 C147.27533432 99.83352617 151.93540244 99.8091867 156.6875 99.8125 C157.98905029 99.8115332 157.98905029 99.8115332 159.31689453 99.81054688 C165.25819872 99.86021767 171.09955617 100.31404874 177 101 C177.69906042 89.16840242 168.413089 78.29708135 161.0625 69.74609375 C154.20744299 62.46259567 145.79094819 57.28255234 136 55 C135.01 55 134.02 55 133 55 C133 54.34 133 53.68 133 53 C121.80450408 50.70538596 108.28941513 50.50277176 97.4375 54.20703125 Z M282 71 C281.4121875 71.5878125 280.824375 72.175625 280.21875 72.78125 C274.83326628 78.60636504 270.63206773 85.99380871 270 94 C269.34 94 268.68 94 268 94 C267.34 96.64 266.68 99.28 266 102 C271.27324283 101.40850903 271.27324283 101.40850903 276.48828125 100.453125 C286.19406829 98.32504132 295.35497091 99.31690292 305.0625 101.0625 C323.50972634 104.04661014 341.43404825 103.07810592 357 92 C366.72643304 84.0307597 376.40742875 74.74289451 383 64 C383 63.34 383 62.68 383 62 C382.30140869 61.86948242 381.60281738 61.73896484 380.88305664 61.60449219 C368.35241797 59.25416134 355.86155785 56.88071513 343.48828125 53.796875 C319.91559173 48.4118485 299.20979544 53.79020456 282 71 Z " fill="#FEFEFE" transform="translate(426,311)"/>
<path d="M0 0 C6.77680171 7.44394799 11.0394055 16.34256199 11.35546875 26.49609375 C10.80364209 37.27050932 7.08709443 46.88796901 -0.73828125 54.484375 C-3.70828125 56.464375 -6.67828125 58.444375 -9.73828125 60.484375 C-11.19069774 96.79478731 -11.30569941 133.14750077 -11.73828125 169.484375 C47.00171875 169.484375 105.74171875 169.484375 166.26171875 169.484375 C166.26171875 206.774375 166.26171875 244.064375 166.26171875 282.484375 C164.94171875 282.484375 163.62171875 282.484375 162.26171875 282.484375 C161.93171875 280.504375 161.60171875 278.524375 161.26171875 276.484375 C160.27171875 276.484375 159.28171875 276.484375 158.26171875 276.484375 C156.75390625 274.4296875 156.75390625 274.4296875 155.13671875 271.609375 C152.01074244 266.45914651 148.49772967 262.15246475 144.375 257.7734375 C143.67761719 257.01804687 142.98023438 256.26265625 142.26171875 255.484375 C141.51921875 254.76636719 140.77671875 254.04835938 140.01171875 253.30859375 C137.42194055 249.12910795 137.79552034 245.49040356 137.94921875 240.671875 C137.9646875 239.69661865 137.98015625 238.7213623 137.99609375 237.71655273 C138.0593189 234.30476569 138.15842932 230.89518133 138.26171875 227.484375 C138.30069303 226.08171679 138.33925022 224.67904694 138.37744141 223.27636719 C138.63233655 214.01084831 138.9344373 204.74760879 139.26171875 195.484375 C132.66171875 195.484375 126.06171875 195.484375 119.26171875 195.484375 C119.26171875 208.024375 119.26171875 220.564375 119.26171875 233.484375 C110.26171875 232.359375 110.26171875 232.359375 106.32421875 230.41796875 C105.19693359 229.87354126 105.19693359 229.87354126 104.046875 229.31811523 C102.66822266 228.62697632 102.66822266 228.62697632 101.26171875 227.921875 C98.29171875 226.4575 95.32171875 224.993125 92.26171875 223.484375 C92.26171875 214.244375 92.26171875 205.004375 92.26171875 195.484375 C85.33171875 195.484375 78.40171875 195.484375 71.26171875 195.484375 C71.26171875 202.414375 71.26171875 209.344375 71.26171875 216.484375 C67.67833513 216.51134026 64.09515438 216.53119747 60.51171875 216.546875 C59.4959375 216.55525391 58.48015625 216.56363281 57.43359375 216.57226562 C56.45390625 216.57548828 55.47421875 216.57871094 54.46484375 216.58203125 C53.56411133 216.58726807 52.66337891 216.59250488 51.73535156 216.59790039 C49.26171875 216.484375 49.26171875 216.484375 45.26171875 215.484375 C45.26171875 208.884375 45.26171875 202.284375 45.26171875 195.484375 C17.21171875 195.484375 -10.83828125 195.484375 -39.73828125 195.484375 C-39.73828125 150.934375 -39.73828125 106.384375 -39.73828125 60.484375 C-42.70828125 59.494375 -45.67828125 58.504375 -48.73828125 57.484375 C-56.13385618 52.95647198 -61.1814615 44.00919628 -63.94921875 35.96484375 C-66.3159715 25.52535513 -64.98365479 16.46536918 -59.453125 7.37109375 C-52.80512976 -2.16572393 -44.30099858 -8.92989395 -32.86328125 -11.328125 C-19.8132793 -12.36383944 -9.4623004 -9.09093854 0 0 Z M-35.41796875 20.69921875 C-37.04509736 22.61025019 -37.04509736 22.61025019 -37.30078125 26.109375 C-36.56991535 30.4945704 -36.00460831 32.40427251 -32.61328125 35.296875 C-28.76946126 36.88453978 -25.62351132 36.74550815 -21.73828125 35.484375 C-18.81272319 33.47305383 -17.10540685 32.09258007 -16.296875 28.55078125 C-16.07175342 24.70919035 -16.50535567 22.84929174 -18.61328125 19.546875 C-21.26648567 16.971706 -22.23547667 16.55338739 -25.92578125 16.046875 C-30.37247146 16.55715093 -32.23144197 17.67701959 -35.41796875 20.69921875 Z " fill="#FEFEFE" transform="translate(472.73828125,79.515625)"/>
<path d="M0 0 C9.00282304 9.9285632 10.6994081 20.27746508 10.13623047 33.2109375 C9.45708735 41.1311897 5.61790076 48.75908794 -0.04296875 54.30078125 C-2.64102437 55.97631029 -5.22736166 57.5464511 -7.96875 58.9765625 C-13.16683056 64.80115372 -11.2039228 77.23814226 -11.23242188 84.71704102 C-11.24071518 85.90537033 -11.24900848 87.09369965 -11.2575531 88.31803894 C-11.27484522 90.87754101 -11.2900407 93.43705795 -11.30332947 95.99658394 C-11.32448571 100.04325041 -11.35135474 104.08984117 -11.38000488 108.13645935 C-11.44483473 117.44293355 -11.50071694 126.74945702 -11.55599213 136.05599213 C-11.60686548 144.61667716 -11.6596549 153.17733677 -11.72051764 161.73795742 C-11.74420847 165.10250739 -11.76579007 168.46704454 -11.78260803 171.83163643 C-11.80190342 175.570824 -11.82706931 179.30992947 -11.85351562 183.04907227 C-11.85770004 184.16539032 -11.86188446 185.28170837 -11.86619568 186.43185425 C-11.87453934 187.44523361 -11.882883 188.45861298 -11.89147949 189.50270081 C-11.89921009 190.82800985 -11.89921009 190.82800985 -11.90709686 192.18009281 C-12.04296875 194.30078125 -12.04296875 194.30078125 -13.04296875 196.30078125 C-40.43296875 196.30078125 -67.82296875 196.30078125 -96.04296875 196.30078125 C-96.04296875 202.90078125 -96.04296875 209.50078125 -96.04296875 216.30078125 C-104.54761806 218.00171111 -113.3698942 217.30078125 -122.04296875 217.30078125 C-122.04296875 174.40078125 -122.04296875 131.50078125 -122.04296875 87.30078125 C-113.46296875 87.30078125 -104.88296875 87.30078125 -96.04296875 87.30078125 C-95.15569065 91.73717177 -94.94094535 95.6501756 -95.02124023 100.12036133 C-95.03084778 100.89162354 -95.04045532 101.66288574 -95.050354 102.45751953 C-95.08321478 104.99521386 -95.12359586 107.53272902 -95.1640625 110.0703125 C-95.18837626 111.83435951 -95.21221919 113.59841306 -95.23561096 115.36247253 C-95.29832691 119.99689208 -95.36742872 124.63119516 -95.43786621 129.26550293 C-95.52111836 134.83051533 -95.59642913 140.39564019 -95.67307281 145.96074677 C-95.7902918 154.40752664 -95.91758984 162.8541008 -96.04296875 171.30078125 C-77.56296875 171.30078125 -59.08296875 171.30078125 -40.04296875 171.30078125 C-40.04296875 135.00078125 -40.04296875 98.70078125 -40.04296875 61.30078125 C-42.35296875 60.64078125 -44.66296875 59.98078125 -47.04296875 59.30078125 C-54.55712677 54.65230388 -58.77284046 47.27344322 -62.35546875 39.42578125 C-64.88928601 27.90843005 -64.82182176 16.6265031 -58.5078125 6.359375 C-52.41822226 -2.19852915 -43.89786624 -7.86746348 -33.60546875 -10.19921875 C-21.64963537 -11.80800653 -9.25749709 -7.69983027 0 0 Z M-36.04296875 22.30078125 C-37.45297539 25.12079452 -37.28845326 27.1708538 -37.04296875 30.30078125 C-35.68014431 33.45679575 -34.72945777 34.91115235 -31.73046875 36.61328125 C-28.59270611 37.41596471 -26.26930724 37.70407356 -23.04296875 37.30078125 C-20.34306213 35.50084351 -18.50108225 34.21700825 -17.04296875 31.30078125 C-16.39605115 26.59676615 -16.40463198 23.30976518 -18.98046875 19.23828125 C-22.54860451 16.98088924 -24.73047871 16.57911511 -28.88671875 16.80078125 C-32.33668653 17.60077378 -33.95224871 19.5567112 -36.04296875 22.30078125 Z " fill="#FEFEFE" transform="translate(876.04296875,78.69921875)"/>
<path d="M0 0 C0.84433594 0.00322266 1.68867187 0.00644531 2.55859375 0.00976562 C3.86763672 0.02233398 3.86763672 0.02233398 5.203125 0.03515625 C6.53537109 0.04192383 6.53537109 0.04192383 7.89453125 0.04882812 C10.08079829 0.06058225 12.26692679 0.07701376 14.453125 0.09765625 C14.948125 1.58265625 14.948125 1.58265625 15.453125 3.09765625 C16.2575 3.13890625 17.061875 3.18015625 17.890625 3.22265625 C25.55851942 5.10599874 30.84359858 9.94171002 35.45703125 16.16796875 C36.453125 18.09765625 36.453125 18.09765625 36.453125 22.09765625 C37.938125 22.59265625 37.938125 22.59265625 39.453125 23.09765625 C42.80530792 35.37052431 41.65591603 45.91711333 35.4140625 56.98828125 C32.00634449 62.39175442 28.8046243 66.0919392 22.88449097 68.62393188 C20.67751418 69.89047895 19.65557494 70.52237116 18.80200577 72.94788742 C18.55503159 75.3578271 18.53343576 77.68460029 18.58251953 80.10693359 C18.57335007 81.0182756 18.5641806 81.92961761 18.55473328 82.86857605 C18.53238042 85.8910975 18.55925778 88.91113984 18.5859375 91.93359375 C18.57908367 94.04994955 18.56901235 96.16629715 18.55587769 98.28262329 C18.5292296 103.87386266 18.54356259 109.46425648 18.56719971 115.05548096 C18.58865849 121.76728388 18.56447948 128.4790337 18.54514885 135.19082069 C18.53068484 140.43351599 18.5231233 145.67585054 18.53933716 150.91854858 C18.56550593 164.01277416 18.13195645 177.01928277 17.453125 190.09765625 C25.373125 190.09765625 33.293125 190.09765625 41.453125 190.09765625 C42.49092499 193.21105623 42.60854689 195.45115972 42.65844727 198.71923828 C42.67837234 199.88389618 42.69829742 201.04855408 42.71882629 202.24850464 C42.74392525 204.15770187 42.74392525 204.15770187 42.76953125 206.10546875 C42.79036569 207.44833905 42.81154726 208.79120401 42.83305359 210.13406372 C42.88932009 213.74780634 42.93888613 217.36160865 42.98616028 220.97547913 C43.01555966 223.2176732 43.04604992 225.4598502 43.07678223 227.70202637 C43.20948541 237.46244468 43.32400959 247.22300584 43.4298172 256.98374939 C43.45230623 259.02339797 43.47589888 261.0630303 43.49993896 263.10266113 C43.58183432 270.13397841 43.64824684 277.16500642 43.68429565 284.19671631 C43.69678749 286.2871251 43.71425535 288.37751043 43.73684692 290.46783447 C43.76635917 293.34980012 43.77656149 296.23118304 43.78125 299.11328125 C43.79355148 299.94465607 43.80585297 300.77603088 43.81852722 301.63259888 C43.79643214 307.38823554 42.61779501 311.42332976 38.91015625 316.00390625 C35.89478017 318.92617095 32.91346697 321.52487198 29.453125 323.91015625 C25.20369618 326.93252132 22.77887262 330.70237254 20.09375 335.12109375 C19.55234375 335.77335937 19.0109375 336.425625 18.453125 337.09765625 C17.133125 337.09765625 15.813125 337.09765625 14.453125 337.09765625 C14.453125 297.16765625 14.453125 257.23765625 14.453125 216.09765625 C-1.056875 216.09765625 -16.566875 216.09765625 -32.546875 216.09765625 C-32.546875 207.51765625 -32.546875 198.93765625 -32.546875 190.09765625 C-24.626875 190.09765625 -16.706875 190.09765625 -8.546875 190.09765625 C-8.546875 150.49765625 -8.546875 110.89765625 -8.546875 70.09765625 C-12.011875 69.60265625 -12.011875 69.60265625 -15.546875 69.09765625 C-23.60542957 65.19789145 -28.2254832 57.2761615 -32.421875 49.72265625 C-35.61452419 39.43523107 -35.12786407 29.33972042 -30.32421875 19.625 C-24.93180199 10.86795551 -16.70171451 3.49133829 -6.71704102 0.56054688 C-4.40982348 0.06842353 -2.35726336 -0.01592746 0 0 Z M-5.546875 31.09765625 C-7.07902388 34.16195401 -6.77626048 36.71422045 -6.546875 40.09765625 C-4.89548195 43.63635565 -3.83082271 44.90835778 -0.546875 47.09765625 C3.67104952 47.4044144 6.91083242 47.54061665 10.453125 45.09765625 C11.21625 44.58203125 11.979375 44.06640625 12.765625 43.53515625 C15.03349214 40.25934815 14.82592488 38.14695553 14.18359375 34.29296875 C12.90805077 30.45951872 10.89961158 29.04022141 7.453125 27.09765625 C2.0086729 25.90668235 -1.66251903 27.09559252 -5.546875 31.09765625 Z " fill="#FFFEFE" transform="translate(644.546875,14.90234375)"/>
<path d="M0 0 C24.42 0 48.84 0 74 0 C74 24.42 74 48.84 74 74 C49.58 74 25.16 74 0 74 C0 49.58 0 25.16 0 0 Z M27 27 C27 33.6 27 40.2 27 47 C33.6 47 40.2 47 47 47 C47 40.4 47 33.8 47 27 C40.4 27 33.8 27 27 27 Z " fill="#FEFFFE" transform="translate(706,81)"/>
<path d="M0 0 C24.09 0 48.18 0 73 0 C73 24.42 73 48.84 73 74 C48.91 74 24.82 74 0 74 C0 49.58 0 25.16 0 0 Z M26 27 C26 33.93 26 40.86 26 48 C30.9190625 48.0309375 30.9190625 48.0309375 35.9375 48.0625 C36.97253662 48.071604 38.00757324 48.08070801 39.07397461 48.09008789 C39.88358643 48.09258545 40.69319824 48.09508301 41.52734375 48.09765625 C42.35999756 48.10289307 43.19265137 48.10812988 44.05053711 48.11352539 C46.00516798 48.21643292 46.00516798 48.21643292 47 47 C47.08669432 45.5112814 47.10703494 44.018555 47.09765625 42.52734375 C47.09515869 41.71773193 47.09266113 40.90812012 47.09008789 40.07397461 C47.08098389 39.03893799 47.07187988 38.00390137 47.0625 36.9375 C47.041875 33.658125 47.02125 30.37875 47 27 C40.07 27 33.14 27 26 27 Z " fill="#FFFEFF" transform="translate(518,81)"/>
<path d="M0 0 C8.58 0 17.16 0 26 0 C26 12.87 26 25.74 26 39 C32.93 39 39.86 39 47 39 C47 26.13 47 13.26 47 0 C55.91 0 64.82 0 74 0 C74 21.45 74 42.9 74 65 C49.58 65 25.16 65 0 65 C0 43.55 0 22.1 0 0 Z " fill="#FFFFFF" transform="translate(518,166)"/>
<path d="M0 0 C8.58 0 17.16 0 26 0 C26 45.21 26 90.42 26 137 C3 146 3 146 0 146 C0 97.82 0 49.64 0 0 Z " fill="#FFFFFE" transform="translate(707,166)"/>
<path d="M0 0 C2.38671875 1.19140625 2.38671875 1.19140625 4.6875 2.5625 C10.1653235 5.38366135 14.91781677 6.16277032 21 5 C23.36545902 3.90577021 23.36545902 3.90577021 25.5625 2.5 C29.50022637 0.10131457 32.43481179 -0.97411591 37.078125 -0.7578125 C41.80734217 0.46874917 45.7310949 3.00388601 49.89794922 5.49853516 C59.28298969 11.0784124 68.42443758 13.35801383 79.3203125 13.82421875 C82 14 82 14 85 15 C84 18 84 18 82.53564453 19.15258789 C75.34032838 22.7277227 68.08199326 22.47675975 60.24700928 22.44418335 C47.52742351 22.40834477 35.54624983 22.90324412 23.22998047 26.44897461 C15.81904087 28.49771032 10.45694723 27.2722048 3.1706543 25.19238281 C-4.50039264 23.08677869 -11.38286319 22.70862429 -19.3125 22.9375 C-45.72534023 23.29060802 -45.72534023 23.29060802 -56 17 C-56 16.01 -56 15.02 -56 14 C-55.04915527 13.90295776 -55.04915527 13.90295776 -54.07910156 13.80395508 C-36.97193451 12.03353943 -36.97193451 12.03353943 -21 6 C-19.05143624 5.02003868 -17.09755752 4.05370915 -15.13476562 3.10253906 C-13.83060665 2.46820324 -12.53430163 1.8173574 -11.24804688 1.14746094 C-7.06216339 -0.9182703 -4.47373024 -1.34396011 0 0 Z " fill="#FFFFFF" transform="translate(633,560)"/>
<path d="M0 0 C0.99 0 1.98 0 3 0 C2.90460937 0.78503906 2.80921875 1.57007813 2.7109375 2.37890625 C2.06535169 8.49695786 1.77091351 13.23059967 4 19 C5.051875 17.88625 5.051875 17.88625 6.125 16.75 C10.28657786 12.7693603 14.13259182 9.50339226 20 9 C22.55287321 9.72735494 24.95658598 10.52169619 27.4375 11.4375 C38.68224725 15.22750151 48.02658762 15.08515204 59.17578125 10.90234375 C64.69625267 9.13854168 69.78049085 9.06780616 75.125 11.3125 C75.74375 11.869375 76.3625 12.42625 77 13 C77 13.99 77 14.98 77 16 C77.99 16 78.98 16 80 16 C80 17.32 80 18.64 80 20 C80.99 20 81.98 20 83 20 C83.66 14.06 84.32 8.12 85 2 C85.99 2 86.98 2 88 2 C90.345938 9.31380672 91.17362897 16.55512399 87.6953125 23.66796875 C83.8239899 29.7253367 83.8239899 29.7253367 80 31 C77.64702758 31.12834395 75.29247784 31.22865033 72.9375 31.3125 C65.51838984 31.7097127 58.17806485 32.54558169 52.93359375 38.24609375 C50.88188632 41.16822251 49.30355492 44.09946595 47.75 47.3125 C47.22921875 48.38113281 46.7084375 49.44976563 46.171875 50.55078125 C45.59179688 51.76314453 45.59179688 51.76314453 45 53 C44.01 53 43.02 53 42 53 C42 52.01 42 51.02 42 50 C41.01 49.67 40.02 49.34 39 49 C37.41341701 46.06237715 36.12398733 43.04143864 34.79296875 39.98046875 C32.57092587 36.28674606 30.86164181 34.92641264 27 33 C23.71219977 32.23445565 20.41698281 31.85205954 17.0625 31.5 C10.38493082 30.79605433 5.59199541 29.84723444 0 26 C-4.2866857 20.60707283 -3.63432621 13.55470414 -3 7 C-2.25121267 4.35772747 -1.34618087 2.41190739 0 0 Z " fill="#FFFFFF" transform="translate(605,489)"/>
<path d="M0 0 C1.37529053 0.26935414 2.75020359 0.54063511 4.125 0.8125 C5.51138672 1.08126953 5.51138672 1.08126953 6.92578125 1.35546875 C8.97640117 1.78539542 11.01675049 2.26756592 13.04296875 2.80078125 C28.85565826 6.78701481 44.0513162 6.12876643 59.5078125 1.09375 C63 0 63 0 66 0 C64.13576328 8.94833626 58.52667013 15.90177454 51 21 C42.31673209 26.1874068 31.74602966 26.50010396 22.03125 24.33984375 C11.60215692 20.6220652 4.93402343 12.68302098 0 3 C0 2.01 0 1.02 0 0 Z " fill="#FFFFFF" transform="translate(615,600)"/>
</svg>
